<svg width="18" height="12" viewBox="0 0 18 12" fill="none" xmlns="http://www.w3.org/2000/svg">
<path d="M15.22 11.5599H2.77999C2.0435 11.5573 1.33794 11.2636 0.817163 10.7428C0.296382 10.222 0.00262895 9.51653 -6.10352e-06 8.78003V2.78003C0.00262895 2.04354 0.296382 1.33792 0.817163 0.817144C1.33794 0.296363 2.0435 0.00263994 2.77999 4.88281e-06H15.22C15.9565 0.00263994 16.6621 0.296363 17.1829 0.817144C17.7036 1.33792 17.9974 2.04354 18 2.78003V8.78003C17.9974 9.51653 17.7036 10.222 17.1829 10.7428C16.6621 11.2636 15.9565 11.5573 15.22 11.5599ZM2.77999 1.17005C2.35299 1.17005 1.9435 1.33967 1.64156 1.64161C1.33963 1.94354 1.17001 2.35304 1.17001 2.78003V8.78003C1.17001 9.20703 1.33963 9.61653 1.64156 9.91846C1.9435 10.2204 2.35299 10.39 2.77999 10.39H15.22C15.647 10.39 16.0565 10.2204 16.3585 9.91846C16.6604 9.61653 16.83 9.20703 16.83 8.78003V2.78003C16.83 2.35304 16.6604 1.94354 16.3585 1.64161C16.0565 1.33967 15.647 1.17005 15.22 1.17005H2.77999Z" transform="translate(0 0.0898438)" fill="#FFC400"/>
<path d="M8.22999 5.94004C8.04277 5.94064 7.85914 5.88865 7.7 5.79002L1.34277e-05 0.99998L0.620009 -1.95312e-05L8.22999 4.72996L15.83 0.02L16.45 1.02L8.75001 5.81004C8.59174 5.89988 8.41193 5.94484 8.22999 5.94004Z" transform="translate(0.77002 0.439941)" fill="#FFC400"/>
<path d="M8.56001 3.41797e-05H1.46484e-05V0.789951H8.56001V3.41797e-05Z" transform="translate(0.850098 10.269) rotate(-41.84)" fill="#FFC400"/>
<path d="M0.779998 -2.92969e-05H0V8.73996H0.779998V-2.92969e-05Z" transform="translate(10.1558 5.35645) rotate(-49.87)" fill="#FFC400"/>
</svg>
