<svg width="19" height="19" viewBox="0 0 19 19" fill="none" xmlns="http://www.w3.org/2000/svg">
<path d="M17.5688 14.483C17.542 14.2758 17.4676 14.0777 17.3514 13.9041C17.2351 13.7306 17.0802 13.5865 16.8987 13.483L12.5688 10.993C12.3093 10.8442 12.0079 10.7851 11.7115 10.8249C11.415 10.8647 11.1399 11.001 10.9287 11.213L10.0788 12.0629C9.96489 12.1655 9.81703 12.2224 9.66376 12.2224C9.51048 12.2224 9.36263 12.1655 9.24875 12.0629C7.87334 10.952 6.61967 9.69836 5.50876 8.32295C5.40616 8.20908 5.34939 8.06132 5.34939 7.90804C5.34939 7.75476 5.40616 7.60688 5.50876 7.493L6.35876 6.64302C6.57069 6.43191 6.70708 6.15679 6.74686 5.86031C6.78663 5.56383 6.72756 5.26251 6.57876 5.00301L4.08874 0.67293C3.98403 0.494041 3.83982 0.341513 3.66711 0.226885C3.49441 0.112257 3.2978 0.0385691 3.09228 0.0115533C2.88677 -0.0154626 2.67781 0.00490195 2.48135 0.0710015C2.28489 0.137101 2.10616 0.247273 1.95877 0.393023L0.678741 1.67293C-0.221259 2.57293 -0.23126 4.21293 0.678741 6.29293C2.90585 10.9274 6.64422 14.6659 11.2787 16.893C12.1352 17.2812 13.0591 17.4986 13.9987 17.533C14.3448 17.5526 14.6913 17.5025 15.0177 17.3857C15.3441 17.2689 15.6437 17.0877 15.8987 16.853L17.1787 15.573C17.3276 15.4261 17.4403 15.2467 17.508 15.0489C17.5757 14.8511 17.5965 14.6402 17.5688 14.4329V14.483ZM12.2888 11.483L16.6187 13.973C16.7145 14.0287 16.7975 14.1038 16.8623 14.1937C16.9271 14.2835 16.9723 14.386 16.995 14.4945C17.0176 14.6029 17.0172 14.7149 16.9937 14.8232C16.9702 14.9315 16.9243 15.0337 16.8588 15.123L11.1088 11.843L11.3387 11.613C11.4609 11.4901 11.6201 11.4109 11.7918 11.3874C11.9634 11.3639 12.1381 11.3975 12.2888 11.483ZM3.06876 0.612994C3.1891 0.628411 3.30419 0.671634 3.40488 0.739336C3.50556 0.807039 3.58906 0.89737 3.64874 1.00301L6.13876 5.33296C6.22427 5.48366 6.25786 5.65825 6.23437 5.82991C6.21088 6.00157 6.1316 6.16086 6.00876 6.28304L5.79877 6.493L2.49875 0.763018C2.63231 0.665523 2.79341 0.612971 2.95877 0.612994H3.06876ZM15.5688 16.503C14.8588 17.213 13.3988 17.1829 11.5688 16.4229C7.06962 14.2529 3.4388 10.6221 1.26877 6.123C0.508767 4.293 0.47875 2.843 1.18875 2.123L2.18875 1.123L5.49875 6.86299L5.27875 7.08296C5.06993 7.29003 4.94521 7.56707 4.92859 7.86067C4.91197 8.15428 5.00464 8.44362 5.18875 8.67293C6.32368 10.0775 7.60416 11.3581 9.00876 12.493C9.23807 12.6771 9.52744 12.7697 9.82104 12.7531C10.1146 12.7365 10.3917 12.6118 10.5988 12.403L10.7988 12.203L16.5587 15.493L15.5587 16.493L15.5688 16.503Z" transform="translate(0.03125 0.606934)" fill="#FFC400"/>
<path d="M17.5688 14.4831C17.5421 14.276 17.4677 14.0778 17.3514 13.9043C17.2352 13.7307 17.0802 13.5866 16.8988 13.4831L12.5688 10.9931C12.3093 10.8443 12.008 10.7853 11.7115 10.825C11.415 10.8648 11.1399 11.0012 10.9288 11.2131L10.0788 12.0631C9.96492 12.1657 9.81707 12.2225 9.66379 12.2225C9.51051 12.2225 9.36266 12.1657 9.24878 12.0631C7.87337 10.9522 6.6197 9.69848 5.50879 8.32308C5.40619 8.2092 5.34943 8.06144 5.34943 7.90816C5.34943 7.75488 5.40619 7.607 5.50879 7.49312L6.35879 6.64315C6.57072 6.43203 6.70711 6.15691 6.74689 5.86043C6.78666 5.56395 6.72759 5.26263 6.5788 5.00313L4.08877 0.673052C3.98406 0.494163 3.83985 0.341635 3.66714 0.227007C3.49444 0.11238 3.29783 0.0386911 3.09231 0.0116753C2.8868 -0.0153405 2.67784 0.00502402 2.48138 0.0711236C2.28492 0.137223 2.10619 0.247395 1.9588 0.393145L0.678771 1.67305C-0.221229 2.57305 -0.231229 4.21305 0.678771 6.29305C2.90588 10.9276 6.64425 14.666 11.2788 16.8931C12.1352 17.2813 13.0591 17.4987 13.9988 17.5332C14.3449 17.5527 14.6914 17.5026 15.0177 17.3858C15.3441 17.269 15.6437 17.0878 15.8988 16.8531L17.1788 15.5731C17.3276 15.4262 17.4403 15.2469 17.508 15.049C17.5757 14.8512 17.5965 14.6403 17.5688 14.4331V14.4831ZM12.2888 11.4831L16.6188 13.9731C16.7145 14.0288 16.7976 14.104 16.8624 14.1938C16.9272 14.2837 16.9724 14.3861 16.995 14.4946C17.0176 14.603 17.0172 14.715 16.9937 14.8233C16.9703 14.9316 16.9243 15.0338 16.8588 15.1231L11.1088 11.8431L11.3388 11.6131C11.461 11.4903 11.6201 11.411 11.7918 11.3875C11.9635 11.364 12.1381 11.3976 12.2888 11.4831ZM3.06879 0.613116C3.18913 0.628533 3.30422 0.671756 3.40491 0.739459C3.50559 0.807162 3.58909 0.897492 3.64877 1.00313L6.13879 5.33309C6.2243 5.48378 6.25789 5.65837 6.2344 5.83003C6.21091 6.0017 6.13163 6.16098 6.00879 6.28316L5.7988 6.49312L2.49878 0.76314C2.63234 0.665645 2.79344 0.613093 2.9588 0.613116H3.06879ZM15.5688 16.5031C14.8588 17.2131 13.3988 17.1831 11.5688 16.4231C7.06965 14.253 3.43883 10.6223 1.2688 6.12313C0.508798 4.29313 0.478781 2.84313 1.18878 2.12313L2.18878 1.12313L5.49878 6.86312L5.27878 7.08309C5.06997 7.29016 4.94524 7.56719 4.92862 7.8608C4.912 8.1544 5.00467 8.44374 5.18878 8.67305C6.32371 10.0777 7.60419 11.3582 9.00879 12.4931C9.2381 12.6772 9.52747 12.7699 9.82107 12.7533C10.1147 12.7366 10.3917 12.612 10.5988 12.4032L10.7988 12.2031L16.5588 15.4931L15.5588 16.4931L15.5688 16.5031Z" transform="translate(0.424927 0.381348)" fill="#FFC400"/>
</svg>
