<svg width="18" height="25" viewBox="0 0 18 25" fill="none" xmlns="http://www.w3.org/2000/svg">
<path d="M8.36001 16.29L7.94 15.9C7.65 15.63 0.769993 9.06995 -7.32422e-06 0.109951L1.17001 0.00997559C1.79001 7.27998 6.84001 13.06 8.33001 14.62C9.80001 12.99 14.81 6.98997 15.52 -3.41797e-05L16.69 0.119961C15.83 8.71996 9.05 15.6 8.76 15.89L8.36001 16.29Z" transform="translate(0.529785 7.7998)" fill="#FFC400"/>
<path d="M16.7 8.35001H15.52C15.52 6.44841 14.7646 4.6247 13.42 3.28007C12.0753 1.93543 10.2516 1.17997 8.34999 1.17997C6.44839 1.17997 4.62468 1.93543 3.28004 3.28007C1.93541 4.6247 1.18001 6.44841 1.18001 8.35001H1.34277e-05C1.34277e-05 6.13546 0.879733 4.01165 2.44566 2.44572C4.01159 0.879789 6.13543 3.90625e-05 8.34999 3.90625e-05C10.5645 3.90625e-05 12.6884 0.879789 14.2543 2.44572C15.8203 4.01165 16.7 6.13546 16.7 8.35001Z" transform="translate(0.52002)" fill="#FFC400"/>
<path d="M4.67 9.34006C3.74636 9.34006 2.84347 9.0661 2.07549 8.55295C1.30751 8.0398 0.708948 7.31046 0.355487 6.45713C0.00202549 5.6038 -0.0904533 4.66478 0.0897397 3.75888C0.269933 2.85299 0.714705 2.02088 1.36782 1.36777C2.02093 0.714659 2.85304 0.269887 3.75893 0.0896945C4.66482 -0.0904985 5.60381 0.0019803 6.45714 0.355442C7.31047 0.708903 8.03982 1.30756 8.55297 2.07553C9.06611 2.84351 9.34001 3.74638 9.34001 4.67002C9.33737 5.90777 8.84451 7.09411 7.96929 7.96933C7.09406 8.84456 5.90775 9.33742 4.67 9.34006ZM4.67 1.17002C3.97777 1.17002 3.30108 1.37528 2.72551 1.75986C2.14994 2.14445 1.70133 2.69112 1.43642 3.33066C1.17151 3.9702 1.10221 4.67394 1.23726 5.35288C1.37231 6.03181 1.70563 6.65539 2.19512 7.14487C2.6846 7.63435 3.30827 7.96771 3.9872 8.10276C4.66613 8.2378 5.36985 8.16844 6.00939 7.90354C6.64893 7.63863 7.19557 7.19005 7.58016 6.61447C7.96474 6.0389 8.17 5.36225 8.17 4.67002C8.17 3.74176 7.80126 2.85154 7.14489 2.19516C6.48851 1.53879 5.59826 1.17002 4.67 1.17002Z" transform="translate(4.20996 3.67993)" fill="#FFC400"/>
</svg>
