<svg width="18" height="17" viewBox="0 0 18 17" fill="none" xmlns="http://www.w3.org/2000/svg">
<path d="M15.6789 9.74891C15.91 8.5472 15.8432 7.30714 15.4843 6.13722C15.1254 4.9673 14.4853 3.90317 13.6199 3.03785C12.7546 2.17254 11.6905 1.5324 10.5205 1.17347C9.35063 0.814547 8.11059 0.747731 6.90888 0.978893C6.10194 0.304876 5.072 -0.042882 4.02165 0.00416175C2.97129 0.0512055 1.97653 0.489586 1.23307 1.23304C0.489616 1.9765 0.0512654 2.97126 0.00422157 4.02162C-0.0428222 5.07197 0.304844 6.10188 0.978861 6.90882C0.747699 8.11054 0.814515 9.3506 1.17344 10.5205C1.53237 11.6904 2.17247 12.7547 3.03779 13.62C3.90311 14.4853 4.96727 15.1253 6.13719 15.4843C7.30711 15.8432 8.54717 15.91 9.74888 15.6788C10.5558 16.3529 11.5858 16.7006 12.6361 16.6536C13.6865 16.6065 14.6812 16.1682 15.4247 15.4247C16.1681 14.6812 16.6065 13.6865 16.6535 12.6361C16.7006 11.5858 16.3529 10.5559 15.6789 9.74891ZM8.46888 12.9389C6.24888 12.9389 4.39887 11.9389 4.39887 10.7389C4.39004 10.6053 4.40985 10.4713 4.45698 10.346C4.50411 10.2206 4.57745 10.1068 4.67213 10.0121C4.76681 9.91741 4.88063 9.84414 5.00596 9.79701C5.13129 9.74988 5.26527 9.73006 5.39887 9.7389C6.45887 9.7389 6.55888 11.2489 8.39888 11.2489C9.26888 11.2489 9.82887 10.8589 9.82887 10.3589C9.82887 9.8589 9.28886 9.63883 8.41886 9.41883L6.97886 9.06886C5.54886 8.71886 4.43888 8.12889 4.43888 6.47889C4.43888 4.47889 6.43888 3.7389 8.11888 3.7389C9.97888 3.7389 11.8689 4.47889 11.8689 5.59889C11.8799 5.73678 11.8623 5.8754 11.817 6.00611C11.7717 6.13683 11.6998 6.25678 11.6058 6.35829C11.5119 6.45979 11.3978 6.54066 11.271 6.59584C11.1441 6.65102 11.0072 6.67929 10.8689 6.67884C9.86888 6.67884 9.86887 5.54884 8.32887 5.54884C7.46887 5.54884 6.91886 5.78885 6.91886 6.30885C6.91886 6.82885 7.46886 7.01884 8.22886 7.17884L9.22886 7.41883C10.6189 7.73883 12.2889 8.32883 12.2889 10.0388C12.2489 12.0188 10.3189 12.9389 8.46888 12.9389Z" transform="translate(0.670898 0.251099)" fill="#FFC400"/>
</svg>
