<?xml version="1.0" standalone="no"?>
<!DOCTYPE svg PUBLIC "-//W3C//DTD SVG 20010904//EN"
 "http://www.w3.org/TR/2001/REC-SVG-20010904/DTD/svg10.dtd">
<svg version="1.0" xmlns="http://www.w3.org/2000/svg"
 width="200.000000pt" height="200.000000pt" viewBox="0 0 200.000000 200.000000"
 preserveAspectRatio="xMidYMid meet">
<metadata>
Created by potrace 1.11, written by Peter Selinger 2001-2013
</metadata>
<g transform="translate(0.000000,200.000000) scale(0.100000,-0.100000)"
fill="#000000" stroke="none">
<path d="M845 1980 c-22 -5 -54 -11 -70 -14 -40 -7 -126 -38 -198 -69 -139
-62 -314 -212 -397 -339 -64 -98 -128 -243 -145 -329 -32 -160 -31 -342 4
-473 117 -443 504 -745 955 -745 167 0 290 27 436 97 239 113 425 323 509 577
151 455 -43 952 -461 1183 -71 40 -218 94 -288 107 -59 11 -302 15 -345 5z
m250 -104 c52 -6 57 -7 140 -26 61 -14 197 -77 262 -121 147 -100 283 -278
337 -441 27 -79 47 -203 47 -283 1 -585 -552 -1009 -1116 -854 -248 68 -453
243 -564 481 -60 128 -83 233 -82 383 1 86 2 93 27 200 80 341 379 607 737
659 81 11 113 12 212 2z"/>
<path d="M823 1802 c-37 -7 -69 -15 -71 -17 -1 -1 -4 -155 -5 -341 l-3 -339
-271 -1 c-148 -1 -275 -4 -282 -8 -14 -9 -14 -167 1 -248 63 -345 356 -621
705 -663 l52 -6 0 820 -1 821 -29 -2 c-15 -1 -59 -8 -96 -16z m-78 -1158 c0
-278 5 -260 -65 -220 -106 60 -196 150 -259 260 -23 40 -71 177 -71 202 0 12
34 14 198 12 l197 -3 0 -251z"/>
<path d="M1062 1360 l1 -460 293 0 c261 0 294 -2 294 -16 0 -31 -50 -163 -84
-220 -38 -66 -110 -145 -171 -191 -45 -33 -112 -73 -123 -73 -4 0 -7 89 -7
199 l0 198 -101 1 -101 0 1 -306 1 -307 50 3 c74 5 220 56 305 106 77 45 182
139 236 211 49 64 82 127 115 216 38 103 43 138 44 269 l0 105 -275 5 -275 5
0 245 c0 280 -6 266 92 203 105 -67 204 -185 249 -295 10 -27 24 -48 29 -49 6
-1 43 -2 83 -3 53 -2 72 1 72 11 0 21 -46 138 -75 190 -119 214 -361 377 -606
407 l-47 6 0 -460z"/>
<path d="M582 1679 c-74 -48 -161 -131 -219 -209 -43 -57 -117 -197 -128 -243
l-7 -27 215 0 215 0 -1 260 c0 143 -3 260 -6 260 -3 0 -35 -19 -69 -41z"/>
</g>
</svg>
