<svg id="Слой_1" data-name="Слой 1" xmlns="http://www.w3.org/2000/svg" viewBox="0 0 59.88 58.41"><defs><style>.cls-1{fill:#efb944;}</style></defs><title>github_but</title><path class="cls-1" d="M880.19,687.83a29.81,29.81,0,0,0-10.9-10.9,30.13,30.13,0,0,0-30.05,0,29.8,29.8,0,0,0-10.9,10.9,30,30,0,0,0,16.45,43.44,1.74,1.74,0,0,0,1.56-.27,1.52,1.52,0,0,0,.51-1.17q0-.12,0-2.1t0-3.47l-0.9.16a11.44,11.44,0,0,1-2.16.14,16.48,16.48,0,0,1-2.71-.27,6.05,6.05,0,0,1-2.61-1.17,5,5,0,0,1-1.71-2.4l-0.39-.9a9.74,9.74,0,0,0-1.23-2,4.7,4.7,0,0,0-1.7-1.48l-0.27-.2a2.86,2.86,0,0,1-.51-0.47,2.14,2.14,0,0,1-.35-0.55,0.33,0.33,0,0,1,.19-0.45,2.53,2.53,0,0,1,1.13-.17l0.78,0.12a5.69,5.69,0,0,1,1.93.94,6.29,6.29,0,0,1,1.89,2,6.87,6.87,0,0,0,2.16,2.44,4.59,4.59,0,0,0,2.55.84,11.09,11.09,0,0,0,2.22-.19,7.75,7.75,0,0,0,1.75-.59,6.32,6.32,0,0,1,1.91-4,26.69,26.69,0,0,1-4-.7,15.91,15.91,0,0,1-3.66-1.52,10.49,10.49,0,0,1-3.14-2.61,12.55,12.55,0,0,1-2-4.09,19.46,19.46,0,0,1-.8-5.85,11.37,11.37,0,0,1,3.08-8,10.48,10.48,0,0,1,.27-8,5.46,5.46,0,0,1,3.35.53,23.44,23.44,0,0,1,3.25,1.5q1,0.62,1.66,1.05a28.15,28.15,0,0,1,15,0l1.48-.94a21,21,0,0,1,3.59-1.72,5.11,5.11,0,0,1,3.16-.43,10.38,10.38,0,0,1,.31,8,11.37,11.37,0,0,1,3.08,8,19.68,19.68,0,0,1-.8,5.87,12.06,12.06,0,0,1-2.07,4.09,10.9,10.9,0,0,1-3.16,2.59,15.94,15.94,0,0,1-3.66,1.52,26.66,26.66,0,0,1-4,.7q2,1.75,2,5.53v8.22a1.55,1.55,0,0,0,.49,1.17,1.69,1.69,0,0,0,1.54.27A30,30,0,0,0,880.19,687.83Z" transform="translate(-824.33 -672.92)"/></svg>