<svg id="Слой_1" data-name="Слой 1" xmlns="http://www.w3.org/2000/svg" viewBox="0 0 586.59 124.51">
	<defs>
		<style>.cls-1{fill:#ffbc00;}</style>
	</defs>
	<title>name</title>
	<path class="cls-1"
		  d="M657.85,402.71c-1,0-3.4-.1-3.4-1.6,0-8.9,1.2-17.8,2.4-26.6,1.8-13.7,4.1-27.4,7.1-40.9-2.8.3-6.1,1.1-8.6,1.1-0.9,0-1.6-.3-1.6-1.3,0-2.9,10.9-3.1,10.9-3.1,1.1-4.9,3.5-9.5,9.6-9.5a1.56,1.56,0,0,1,1.6,1.5,2.36,2.36,0,0,1-.2.8,32,32,0,0,0-1.9,6.9c20.2,0,34.8,9.7,34.8,31.3,0,22.4-31.8,37.1-44.7,37.1C663.85,398.41,663.55,402.71,657.85,402.71Zm45-42c0-16.9-13.8-27.1-29.8-27.3-2.5,12.5-4.7,25.1-6.6,37.7-1,7-2.2,14.1-2.2,21.2C675.56,392.31,702.86,380.3,702.86,360.7Z"
		  transform="translate(-653.75 -315.1)"/>
	<path class="cls-1"
		  d="M738.36,374.5v-6.2c0-.6,0-2.1-1-2.1-4.1,0-17.9,24.9-20,29.5-0.7,1.5-1.7,3-3.6,3a2,2,0,0,1-2-2.2c0-6.1,5.6-35,8.2-39.9,1.4-2.6,5-4,7.8-4,1.5,0,2.1,1,2.1,2.4,0,2.8-2.5,7.8-3.6,10.5a49.12,49.12,0,0,0-3,11.4s10.8-17.1,16.2-17.1c3.2,0,4.2,4.6,4.2,7.5l-0.2,14.1s-0.1,5.2.8,5.2c0.4,0,1.2-1.4,1.4-1.8,2.4-4,5.2-7.8,7.9-11.6,3.2-4.5,8.5-13.5,14.7-13.5,4.3,0,6.2,4.6,6.2,8.3,0,7.7-1.4,15.4-1.4,23.1,0,1.9,0,5.4,2.7,5.4,4.5,0,12.2-8.4,14.8-11.9,0.7-.9,1.8-2.6,3.1-2.6s1.4,1.2,1.4,2.1a3.81,3.81,0,0,1-1,2c-3.9,5.4-14,15.7-21,15.7-6.6,0-6.9-8.6-6.9-13.4,0-6,.9-12,0.9-18.1,0-1.1,0-4.1-1.7-4.1-4.8,0-17.7,24.9-20.7,29.7a3.11,3.11,0,0,1-2.7,1.8C738.76,397.71,738.36,383.3,738.36,374.5Z"
		  transform="translate(-653.75 -315.1)"/>
	<path class="cls-1"
		  d="M804.15,395.41c5.4,0,13.2-11.5,16.2-16.2,0.6-.9,1.4-2.1,2.5-2.1,1.3,0,1.3,1.2,1.3,2.2,0,1.3-1.9,4-2.7,5.1-3.8,5.4-12.3,16-19.4,16-7.9,0-9.1-11.3-9.1-17.1a46.63,46.63,0,0,1,2.1-12.3c1.2-3.6,3-6.4,7.2-6.4,1.5,0,2.3.6,2.3,2.2,0,2.7-2.3,7.6-3,10.6a44.05,44.05,0,0,0-.9,8.9C800.65,388.6,800.75,395.41,804.15,395.41Zm4-42.3c0,2.6-2.1,5.3-4.8,5.3a3.53,3.53,0,0,1-3.4-3.8c0-2.5,2-5.3,4.7-5.3A3.61,3.61,0,0,1,808.16,353.1Z"
		  transform="translate(-653.75 -315.1)"/>
	<path class="cls-1"
		  d="M831.85,368.8c-1.2,2.1-4.2,6.1-4.2,6.1a16.42,16.42,0,0,0-.2,2.2c0,4,.9,19,6.3,19,6.2,0,13.5-10.6,16.5-15.4,0.5-.9,1.5-2.3,2.6-2.3a1.45,1.45,0,0,1,1.4,1.5,8,8,0,0,1-1.6,4.1c-3.8,6.4-12.7,18.2-20.8,18.2-10.4,0-12.4-21.2-12.4-28.7a99.19,99.19,0,0,1,1.7-19.6,7.61,7.61,0,0,1-2.1.3,2.12,2.12,0,0,1-2.4-2.4c0-2.7,3-3.1,5.1-3.3,2.2-7.2,8-27.1,17.4-27.1,4.2,0,4.5,6,4.5,9a55.64,55.64,0,0,1-2.2,15.7,52.46,52.46,0,0,1,6.8-.8,1.16,1.16,0,0,1,1.4,1.3,2.05,2.05,0,0,1-1.3,1.9c-1,.6-6.7,2-8.2,2.3C838.55,356.9,835.15,363.4,831.85,368.8Zm-5.2.3a65.06,65.06,0,0,0,8.8-17.2c-2.4.5-4.8,0.5-7.1,1.2C827.15,358.3,827.05,363.8,826.65,369.1Zm2.3-21.4c2.7-.4,5.5-0.5,8.2-1.1a63.15,63.15,0,0,0,2.8-17.2c0-.6,0-3-1-3C834.35,326.4,829.45,343.7,829,347.7Z"
		  transform="translate(-653.75 -315.1)"/>
	<path class="cls-1"
		  d="M859,370.7c-2.1,5.8-5.2,13.4-9.6,17.9a4.1,4.1,0,0,1-2.7,1.5,1.21,1.21,0,0,1-1.3-1.3,3.85,3.85,0,0,1,.9-2.2c3.8-5.5,7.8-11.3,8.6-18.1a14,14,0,0,1-2.6-8.4c0-3.1,1.9-11.2,5.9-11.2,2.8,0,3.3,5.8,3.3,7.8a38.63,38.63,0,0,1-.3,4.8c3.1,4.7,11.9,5.1,11.9,14a17.36,17.36,0,0,1-.5,3.9,61.49,61.49,0,0,0-2,14.1c0,1.3,0,3.7,1.9,3.7,4.6,0,12.8-10.4,15.4-14.3,0.6-.9,1.5-2.2,2.6-2.2s1.4,1.1,1.4,2.1a3.86,3.86,0,0,1-.8,2.1c-3.2,5.2-13.3,17-19.7,17-6.6,0-7-9.3-7-14,0-3.7.5-7.3,0.5-11C864.85,373.6,861.85,371.6,859,370.7Z"
		  transform="translate(-653.75 -315.1)"/>
	<path class="cls-1"
		  d="M890.35,428.81c0-13.4,15.9-26.6,26.2-33.4,0.1-1.9.1-3.8,0.1-5.7,0-5.2-.1-10.3-0.3-15.5-3.3,5.5-16.5,20.6-23.1,20.6-4.5,0-5.4-4.4-5.4-8,0-6,1.7-12.3,3.5-18a24.3,24.3,0,0,1,1.3-3.8c0.8-1.6,1.9-2.8,3.8-2.8a4.29,4.29,0,0,1,4.3,4.1c0,1.7-1.5,4.4-2.1,6-1.4,3.5-4.2,12.1-4.2,15.7,0,0.6,0,2.1,1,2.1,1.6,0,5.8-4.2,7-5.4,5.4-5.5,9.8-12,14.6-18.1,0.9-1.1,2-2.8,3.6-2.8a3.72,3.72,0,0,1,2,.7c1.6,1.1,1.6,8.7,1.6,11.1,0,17.9-.6,38.6-10.4,53.8-3.3,5.1-8.7,10.2-15.1,10.2C892.65,439.61,890.35,434.11,890.35,428.81Zm4.4,0.2c0,2.5.7,6.4,3.9,6.4s6.3-3.7,8.1-6c5.2-7,8.4-21,9.3-29.7C907.55,406.51,894.75,417.21,894.75,429Z"
		  transform="translate(-653.75 -315.1)"/>
	<path class="cls-1"
		  d="M1006.65,332.2c0-2-3.6-2-4.9-2a38.19,38.19,0,0,0-6.8.5c-6.3,1.1-16.9,6.3-16.9,13.8,0,12.4,27.9,22,27.9,37.7,0,15.4-24.2,18.3-35.6,18.3a47,47,0,0,1-5.3-.3c-1.7-.2-7.5-0.3-7.5-2.9,0-2.2,1.4-2.2,3.2-2.2,3.3,0,6.5,1.3,9.8,1.3,7.2,0,28.2-2.2,28.2-12.1,0-11.2-30.1-20.6-30.1-38.6,0-15.8,23.5-18.8,35.3-18.8,3.7,0,10.8.8,10.8,5.8a9.49,9.49,0,0,1-3,6.7c-1.9,1.8-6.4,4.6-9.1,4.6a2.44,2.44,0,0,1-2.6-2.5C1000.05,338.2,1006.65,335.3,1006.65,332.2Z"
		  transform="translate(-653.75 -315.1)"/>
	<path class="cls-1"
		  d="M1022.15,404.21c0,1.8-.1,4.7-2.6,4.7-1.7,0-2.3-1.3-2.6-2.8-0.9-4.8-.9-11.5-0.9-18.2a235.42,235.42,0,0,1,3-36.5c1.4-9,2.9-18.2,5.6-27,1.2-4,3.6-7.6,8.2-7.6,1.7,0,2.5,1,2.5,2.7a13.41,13.41,0,0,1-1,4.4c-1.4,3.9-2.4,8-4.2,15.3a289.69,289.69,0,0,0-6.1,34.5c5.8-6.1,12.1-11.6,18.2-17.4,0.9-.8,2.3-2.4,3.6-2.4a2.37,2.37,0,0,1,2.1,2.3c0,1.5-1.6,2.8-2.7,3.7-6.9,5.6-13.3,11.7-19.7,17.8a54.54,54.54,0,0,1,7.6,3.9,133,133,0,0,1,12.1,7.2c1.4,1,3.1,2.6,3.1,4.5,0,1.2-1.2,1.4-2.1,1.4a7.08,7.08,0,0,1-3.1-1l-13.5-7.1a42.29,42.29,0,0,0-5.7-2.7A148.21,148.21,0,0,0,1022.15,404.21Z"
		  transform="translate(-653.75 -315.1)"/>
	<path class="cls-1"
		  d="M1098.15,386.1c-3.7,5.2-11,14.3-18,14.3-6.6,0-7.4-10.8-7.4-15.5-2.6,4.1-8.7,13.2-14,13.2-4.9,0-6-6.6-6-10.4,0-10.5,10.9-28.8,22.6-28.8,1.4,0,3.3,1.7,3.3,3.1a1.52,1.52,0,0,1-1,1.2,44.29,44.29,0,0,0-9.8,7.4c-5.2,5.3-8.5,12.1-8.5,19.6,0,0.8.1,2.4,1.3,2.4,4.5,0,12.9-17.7,14.8-21.8,0.7-1.5,1.5-3,3.4-3,1,0,2.3.3,2.3,1.6s-1.3,4.3-1.8,5.8a38.09,38.09,0,0,0-1.5,11.1c0,2.1.1,9.8,3.2,9.8,4.7,0,12.2-9.9,14.9-13.5,0,0,1.4-2.5,2.8-2.5,1.2,0,1.6.8,1.6,1.9S1098.85,385.1,1098.15,386.1Z"
		  transform="translate(-653.75 -315.1)"/>
	<path class="cls-1"
		  d="M1096.35,370.5c0-13.9,2.1-27.9,7.6-40.7,2.1-4.8,7.8-14.7,13.8-14.7,4.7,0,6,5.2,6,9,0,12.5-6.5,30.3-12.5,41.2-1.4,2.7-3.2,5.1-4.8,7.7a16.91,16.91,0,0,0-1.7,2.9,16.07,16.07,0,0,0-.4,4.4c0,3.9.8,15.8,6.3,15.8,4.9,0,11.7-8.3,14.2-12.2l2.6-4.1a2.43,2.43,0,0,1,2.1-1.4c1.1,0,1.4.9,1.4,1.8a7,7,0,0,1-1.4,3.5l-0.1.1c-3.9,6.5-12.6,18.3-20.9,18.3C1097.45,402.11,1096.35,378.3,1096.35,370.5Zm13.4-36.9c-2.9,9.6-5.7,20.6-5.7,30.2a27.94,27.94,0,0,0,.1,2.9c6.5-10.9,15.4-30.4,15.4-43.1,0-.9,0-3.7-1.5-3.7C1113.85,319.9,1110.85,329.9,1109.75,333.6Z"
		  transform="translate(-653.75 -315.1)"/>
	<path class="cls-1"
		  d="M1150.15,389.41a13.38,13.38,0,0,1-2.3,7.7c4.6,0,14-10.3,16.6-14.2,0.6-.9,1.5-2.2,2.6-2.2s1.5,1,1.5,2a5.57,5.57,0,0,1-.9,2.1c-7.5,11.8-16.1,18.7-30.6,18.7-3.8,0-8.9-.5-11.8-3.3a3.13,3.13,0,0,1-1.1-2.2,1.44,1.44,0,0,1,1.6-1.5,6,6,0,0,1,1.8.7c2.1,1.6,4.5,1.9,7.1,1.9,5.3,0,8.1-3.6,8.1-8.7,0-6-3.7-14.5-7-19.4-1.9,5.4-5.8,13.6-9.8,17.6-0.6.6-1.6,1.6-2.6,1.6a1.37,1.37,0,0,1-1.4-1.4,4.46,4.46,0,0,1,1.2-2.6,59.68,59.68,0,0,0,10.2-19.1,15.94,15.94,0,0,1-.9-5.3c0-3.9,2.6-11.7,7.4-11.7,2.5,0,3.2,3.4,3.2,5.4a28.58,28.58,0,0,1-2.3,9.9C1143.95,373.1,1150.15,380.8,1150.15,389.41Z"
		  transform="translate(-653.75 -315.1)"/>
	<path class="cls-1"
		  d="M1172.55,404.21c0,1.8-.1,4.7-2.6,4.7-1.7,0-2.3-1.3-2.6-2.8-0.9-4.8-.9-11.5-0.9-18.2a235.42,235.42,0,0,1,3-36.5c1.4-9,2.9-18.2,5.6-27,1.2-4,3.6-7.6,8.2-7.6,1.7,0,2.5,1,2.5,2.7a13.41,13.41,0,0,1-1,4.4c-1.4,3.9-2.4,8-4.2,15.3a289.69,289.69,0,0,0-6.1,34.5c5.8-6.1,12.1-11.6,18.2-17.4,0.9-.8,2.3-2.4,3.6-2.4a2.37,2.37,0,0,1,2.1,2.3c0,1.5-1.6,2.8-2.7,3.7-6.9,5.6-13.3,11.7-19.7,17.8a54.54,54.54,0,0,1,7.6,3.9,133.08,133.08,0,0,1,12.1,7.2c1.4,1,3.1,2.6,3.1,4.5,0,1.2-1.2,1.4-2.1,1.4a7.08,7.08,0,0,1-3.1-1l-13.5-7.1a42.24,42.24,0,0,0-5.7-2.7A148.38,148.38,0,0,0,1172.55,404.21Z"
		  transform="translate(-653.75 -315.1)"/>
	<path class="cls-1"
		  d="M1206.45,428.81c0-13.4,15.9-26.6,26.2-33.4,0.1-1.9.1-3.8,0.1-5.7,0-5.2-.1-10.3-0.3-15.5-3.3,5.5-16.5,20.6-23.1,20.6-4.5,0-5.4-4.4-5.4-8,0-6,1.7-12.3,3.5-18a24.3,24.3,0,0,1,1.3-3.8c0.8-1.6,1.9-2.8,3.8-2.8a4.29,4.29,0,0,1,4.3,4.1c0,1.7-1.5,4.4-2.1,6-1.4,3.5-4.2,12.1-4.2,15.7,0,0.6,0,2.1,1,2.1,1.6,0,5.8-4.2,7-5.4,5.4-5.5,9.8-12,14.6-18.1,0.9-1.1,2-2.8,3.6-2.8a3.73,3.73,0,0,1,2,.7c1.6,1.1,1.6,8.7,1.6,11.1,0,17.9-.6,38.6-10.4,53.8-3.3,5.1-8.7,10.2-15.1,10.2C1208.75,439.61,1206.45,434.11,1206.45,428.81Zm4.4,0.2c0,2.5.7,6.4,3.9,6.4s6.3-3.7,8.1-6c5.2-7,8.4-21,9.3-29.7C1223.65,406.51,1210.85,417.21,1210.85,429Z"
		  transform="translate(-653.75 -315.1)"/>
</svg>